<?xml version="1.0" encoding="utf-8"?>
<!-- Generator: Adobe Illustrator 22.1.0, SVG Export Plug-In . SVG Version: 6.00 Build 0)  -->
<svg version="1.1" id="Layer_1" xmlns="http://www.w3.org/2000/svg" xmlns:xlink="http://www.w3.org/1999/xlink" x="0px" y="0px"
	 viewBox="0 0 512 512" style="enable-background:new 0 0 512 512;" xml:space="preserve">
<g>
	<path d="M256.5,31C129.5,31,31,123.9,31,249.3c0,65.6,27,122.3,70.8,161.4c7.6,6.8,6,10.8,7.3,52.8c0.3,10,8.7,17.8,18.7,17.4
		c2.3-0.1,4.5-0.6,6.6-1.5c48-21.1,48.6-22.8,56.8-20.6C330.3,497.2,481,408.2,481,249.3C481,123.9,383.6,31,256.5,31z M391.9,199
		l-66.2,104.9c-10,15.8-31,20.5-46.8,10.5c-0.7-0.5-1.4-0.9-2.1-1.5l-52.7-39.4c-4.8-3.6-11.5-3.6-16.3,0l-71.1,53.9
		c-9.5,7.2-21.9-4.2-15.5-14.2l66.2-104.9c10-15.8,31-20.5,46.8-10.5c0.7,0.5,1.4,1,2.1,1.5l52.7,39.4c4.8,3.6,11.5,3.6,16.3,0
		l71.1-53.9C385.9,177.6,398.3,188.9,391.9,199L391.9,199z"/>
</g>
</svg>
